<mxfile host="app.diagrams.net" modified="2023-11-14T15:28:40.479Z" agent="Mozilla/5.0 (Macintosh; Intel Mac OS X 10.15; rv:109.0) Gecko/20100101 Firefox/119.0" etag="GOSFx5chtPUUohwqalrk" version="22.1.1" type="device">
  <diagram name="Page-1" id="uYjQxTJ9Kn2SAAcoWVMc">
    <mxGraphModel dx="1794" dy="639" grid="1" gridSize="10" guides="1" tooltips="1" connect="1" arrows="1" fold="1" page="1" pageScale="1" pageWidth="827" pageHeight="1169" math="0" shadow="0">
      <root>
        <mxCell id="0" />
        <mxCell id="1" parent="0" />
        <mxCell id="O8zztULoTH7YiL1LroXa-17" style="edgeStyle=orthogonalEdgeStyle;rounded=0;orthogonalLoop=1;jettySize=auto;html=1;entryX=0.5;entryY=0;entryDx=0;entryDy=0;" edge="1" parent="1" source="O8zztULoTH7YiL1LroXa-1" target="O8zztULoTH7YiL1LroXa-2">
          <mxGeometry relative="1" as="geometry">
            <Array as="points">
              <mxPoint x="270" y="250" />
              <mxPoint x="70" y="250" />
            </Array>
          </mxGeometry>
        </mxCell>
        <mxCell id="O8zztULoTH7YiL1LroXa-18" style="edgeStyle=orthogonalEdgeStyle;rounded=0;orthogonalLoop=1;jettySize=auto;html=1;entryX=0.5;entryY=0;entryDx=0;entryDy=0;" edge="1" parent="1" source="O8zztULoTH7YiL1LroXa-1" target="O8zztULoTH7YiL1LroXa-3">
          <mxGeometry relative="1" as="geometry" />
        </mxCell>
        <mxCell id="O8zztULoTH7YiL1LroXa-19" style="edgeStyle=orthogonalEdgeStyle;rounded=0;orthogonalLoop=1;jettySize=auto;html=1;" edge="1" parent="1" source="O8zztULoTH7YiL1LroXa-1" target="O8zztULoTH7YiL1LroXa-4">
          <mxGeometry relative="1" as="geometry">
            <Array as="points">
              <mxPoint x="270" y="250" />
              <mxPoint x="474" y="250" />
            </Array>
          </mxGeometry>
        </mxCell>
        <mxCell id="O8zztULoTH7YiL1LroXa-1" value="Untilted God Game" style="rounded=0;whiteSpace=wrap;html=1;" vertex="1" parent="1">
          <mxGeometry x="210" y="170" width="120" height="60" as="geometry" />
        </mxCell>
        <mxCell id="O8zztULoTH7YiL1LroXa-28" style="edgeStyle=orthogonalEdgeStyle;rounded=0;orthogonalLoop=1;jettySize=auto;html=1;entryX=0;entryY=0.5;entryDx=0;entryDy=0;" edge="1" parent="1" source="O8zztULoTH7YiL1LroXa-2" target="O8zztULoTH7YiL1LroXa-6">
          <mxGeometry relative="1" as="geometry">
            <Array as="points">
              <mxPoint x="-10" y="310" />
              <mxPoint x="-10" y="410" />
            </Array>
          </mxGeometry>
        </mxCell>
        <mxCell id="O8zztULoTH7YiL1LroXa-29" style="edgeStyle=orthogonalEdgeStyle;rounded=0;orthogonalLoop=1;jettySize=auto;html=1;entryX=0;entryY=0.5;entryDx=0;entryDy=0;" edge="1" parent="1" source="O8zztULoTH7YiL1LroXa-2" target="O8zztULoTH7YiL1LroXa-7">
          <mxGeometry relative="1" as="geometry">
            <Array as="points">
              <mxPoint x="-10" y="310" />
              <mxPoint x="-10" y="490" />
            </Array>
          </mxGeometry>
        </mxCell>
        <mxCell id="O8zztULoTH7YiL1LroXa-2" value="Environment" style="rounded=0;whiteSpace=wrap;html=1;fillColor=#f8cecc;strokeColor=#b85450;" vertex="1" parent="1">
          <mxGeometry x="10" y="280" width="120" height="60" as="geometry" />
        </mxCell>
        <mxCell id="O8zztULoTH7YiL1LroXa-25" style="edgeStyle=orthogonalEdgeStyle;rounded=0;orthogonalLoop=1;jettySize=auto;html=1;entryX=0;entryY=0.5;entryDx=0;entryDy=0;" edge="1" parent="1" source="O8zztULoTH7YiL1LroXa-3" target="O8zztULoTH7YiL1LroXa-8">
          <mxGeometry relative="1" as="geometry">
            <Array as="points">
              <mxPoint x="190" y="310" />
              <mxPoint x="190" y="410" />
            </Array>
          </mxGeometry>
        </mxCell>
        <mxCell id="O8zztULoTH7YiL1LroXa-26" style="edgeStyle=orthogonalEdgeStyle;rounded=0;orthogonalLoop=1;jettySize=auto;html=1;entryX=0;entryY=0.5;entryDx=0;entryDy=0;" edge="1" parent="1" source="O8zztULoTH7YiL1LroXa-3" target="O8zztULoTH7YiL1LroXa-9">
          <mxGeometry relative="1" as="geometry">
            <Array as="points">
              <mxPoint x="190" y="310" />
              <mxPoint x="190" y="490" />
            </Array>
          </mxGeometry>
        </mxCell>
        <mxCell id="O8zztULoTH7YiL1LroXa-27" style="edgeStyle=orthogonalEdgeStyle;rounded=0;orthogonalLoop=1;jettySize=auto;html=1;entryX=0;entryY=0.5;entryDx=0;entryDy=0;" edge="1" parent="1" source="O8zztULoTH7YiL1LroXa-3" target="O8zztULoTH7YiL1LroXa-10">
          <mxGeometry relative="1" as="geometry">
            <Array as="points">
              <mxPoint x="190" y="310" />
              <mxPoint x="190" y="570" />
            </Array>
          </mxGeometry>
        </mxCell>
        <mxCell id="O8zztULoTH7YiL1LroXa-3" value="Player" style="rounded=0;whiteSpace=wrap;html=1;fillColor=#dae8fc;strokeColor=#6c8ebf;" vertex="1" parent="1">
          <mxGeometry x="210" y="280" width="120" height="60" as="geometry" />
        </mxCell>
        <mxCell id="O8zztULoTH7YiL1LroXa-20" style="edgeStyle=orthogonalEdgeStyle;rounded=0;orthogonalLoop=1;jettySize=auto;html=1;entryX=0;entryY=0.5;entryDx=0;entryDy=0;" edge="1" parent="1" source="O8zztULoTH7YiL1LroXa-4" target="O8zztULoTH7YiL1LroXa-11">
          <mxGeometry relative="1" as="geometry">
            <Array as="points">
              <mxPoint x="394" y="310" />
              <mxPoint x="394" y="410" />
            </Array>
          </mxGeometry>
        </mxCell>
        <mxCell id="O8zztULoTH7YiL1LroXa-22" style="edgeStyle=orthogonalEdgeStyle;rounded=0;orthogonalLoop=1;jettySize=auto;html=1;entryX=0;entryY=0.5;entryDx=0;entryDy=0;" edge="1" parent="1" source="O8zztULoTH7YiL1LroXa-4" target="O8zztULoTH7YiL1LroXa-12">
          <mxGeometry relative="1" as="geometry">
            <Array as="points">
              <mxPoint x="394" y="310" />
              <mxPoint x="394" y="490" />
            </Array>
          </mxGeometry>
        </mxCell>
        <mxCell id="O8zztULoTH7YiL1LroXa-23" style="edgeStyle=orthogonalEdgeStyle;rounded=0;orthogonalLoop=1;jettySize=auto;html=1;entryX=0;entryY=0.5;entryDx=0;entryDy=0;" edge="1" parent="1" source="O8zztULoTH7YiL1LroXa-4" target="O8zztULoTH7YiL1LroXa-13">
          <mxGeometry relative="1" as="geometry">
            <Array as="points">
              <mxPoint x="394" y="310" />
              <mxPoint x="394" y="570" />
            </Array>
          </mxGeometry>
        </mxCell>
        <mxCell id="O8zztULoTH7YiL1LroXa-24" style="edgeStyle=orthogonalEdgeStyle;rounded=0;orthogonalLoop=1;jettySize=auto;html=1;entryX=0;entryY=0.5;entryDx=0;entryDy=0;" edge="1" parent="1" source="O8zztULoTH7YiL1LroXa-4" target="O8zztULoTH7YiL1LroXa-14">
          <mxGeometry relative="1" as="geometry">
            <Array as="points">
              <mxPoint x="394" y="310" />
              <mxPoint x="394" y="650" />
            </Array>
          </mxGeometry>
        </mxCell>
        <mxCell id="O8zztULoTH7YiL1LroXa-4" value="Creatures" style="rounded=0;whiteSpace=wrap;html=1;fillColor=#d5e8d4;strokeColor=#82b366;" vertex="1" parent="1">
          <mxGeometry x="414" y="280" width="120" height="60" as="geometry" />
        </mxCell>
        <mxCell id="O8zztULoTH7YiL1LroXa-6" value="Procedural generation" style="rounded=0;whiteSpace=wrap;html=1;fillColor=#f8cecc;strokeColor=#b85450;" vertex="1" parent="1">
          <mxGeometry x="10" y="380" width="120" height="60" as="geometry" />
        </mxCell>
        <mxCell id="O8zztULoTH7YiL1LroXa-7" value="Random biome" style="rounded=0;whiteSpace=wrap;html=1;fillColor=#f8cecc;strokeColor=#b85450;" vertex="1" parent="1">
          <mxGeometry x="10" y="460" width="120" height="60" as="geometry" />
        </mxCell>
        <mxCell id="O8zztULoTH7YiL1LroXa-8" value="Edit environment" style="rounded=0;whiteSpace=wrap;html=1;fillColor=#dae8fc;strokeColor=#6c8ebf;" vertex="1" parent="1">
          <mxGeometry x="210" y="380" width="120" height="60" as="geometry" />
        </mxCell>
        <mxCell id="O8zztULoTH7YiL1LroXa-9" value="Spawn Creatures" style="rounded=0;whiteSpace=wrap;html=1;fillColor=#dae8fc;strokeColor=#6c8ebf;" vertex="1" parent="1">
          <mxGeometry x="210" y="460" width="120" height="60" as="geometry" />
        </mxCell>
        <mxCell id="O8zztULoTH7YiL1LroXa-10" value="&lt;div&gt;6 axis VR controls&lt;/div&gt;" style="rounded=0;whiteSpace=wrap;html=1;fillColor=#dae8fc;strokeColor=#6c8ebf;" vertex="1" parent="1">
          <mxGeometry x="210" y="540" width="120" height="60" as="geometry" />
        </mxCell>
        <mxCell id="O8zztULoTH7YiL1LroXa-11" value="Genetic algorithm (size, speed, color, behavior...)" style="rounded=0;whiteSpace=wrap;html=1;fillColor=#d5e8d4;strokeColor=#82b366;" vertex="1" parent="1">
          <mxGeometry x="414" y="380" width="120" height="60" as="geometry" />
        </mxCell>
        <mxCell id="O8zztULoTH7YiL1LroXa-12" value="IA powered" style="rounded=0;whiteSpace=wrap;html=1;fillColor=#d5e8d4;strokeColor=#82b366;" vertex="1" parent="1">
          <mxGeometry x="414" y="460" width="120" height="60" as="geometry" />
        </mxCell>
        <mxCell id="O8zztULoTH7YiL1LroXa-13" value="Survival Challenges (finding food, escaping predators...)" style="rounded=0;whiteSpace=wrap;html=1;fillColor=#d5e8d4;strokeColor=#82b366;" vertex="1" parent="1">
          <mxGeometry x="414" y="540" width="120" height="60" as="geometry" />
        </mxCell>
        <mxCell id="O8zztULoTH7YiL1LroXa-14" value="Adapt to changing environment" style="rounded=0;whiteSpace=wrap;html=1;fillColor=#d5e8d4;strokeColor=#82b366;" vertex="1" parent="1">
          <mxGeometry x="414" y="620" width="120" height="60" as="geometry" />
        </mxCell>
      </root>
    </mxGraphModel>
  </diagram>
</mxfile>
